<?xml version="1.0" encoding="utf-8"?>
<!-- Generator: Adobe Illustrator 17.0.0, SVG Export Plug-In . SVG Version: 6.00 Build 0)  -->
<!DOCTYPE svg PUBLIC "-//W3C//DTD SVG 1.1//EN" "http://www.w3.org/Graphics/SVG/1.1/DTD/svg11.dtd">
<svg version="1.1" id="Ebene_1" xmlns="http://www.w3.org/2000/svg" xmlns:xlink="http://www.w3.org/1999/xlink" x="0px" y="0px"
	 width="1024px" height="1024px" viewBox="0 0 1024 1024" enable-background="new 0 0 1024 1024" xml:space="preserve">
<rect x="227" fill="#FFFFFF" width="493" height="1024"/>
<path fill="#FFFFFF" d="M513.007,335c-1.429-5.75-2.355-11.682-4.369-17.219c-12.425-34.144-36.457-54.669-72.426-60.902
	c-0.807-0.14-1.671-0.079-2.205-0.88c25.333,0,50.667,0.042,76-0.065c2.501-0.011,3.076,0.565,3.066,3.066
	C512.966,284.333,513.007,309.667,513.007,335z"/>
<path fill="#FFFFFF" d="M434.007,768c6.66-1.881,13.605-2.683,20.078-5.274c31.836-12.743,51.166-35.889,57.849-69.556
	c0.218-1.099-0.069-2.38,1.074-3.17c0,25-0.042,50,0.065,75c0.011,2.501-0.565,3.076-3.066,3.066
	C484.674,767.958,459.341,768,434.007,768z"/>
<g>
	<path fill="#4FBECB" d="M342.332,271.021c6.096-1.333,12.569-1.282,18.87-1.288c78.283-0.08,156.567-0.195,234.849,0.146
		c8.809,0.038,11.263-2.365,11.229-11.16c-0.314-81.946-0.199-163.894-0.146-245.842C607.136,8.584,607.698,4.292,608,0H184
		C82.38,0,0,82.38,0,184v656c0,101.62,82.38,184,184,184h124c0-234.516-0.005-469.033,0.008-703.549
		C308.009,293.52,320.059,275.89,342.332,271.021z"/>
	<path fill="#4FBECB" d="M599.972,425.964c-8.542-27.558-24.146-48.603-52.835-58.041c-54.604-17.962-110.702,11.407-124.785,66.952
		c-12.815,50.542-12.245,101.716-1.193,152.524c6.825,31.375,22.17,56.719,54.253,69.082c40.651,15.665,110.601-0.247,126.55-67.32
		c6.135-25.799,8.746-51.828,8.355-76.935C610.609,482.14,608.551,453.641,599.972,425.964z"/>
	<path fill="#4FBECB" d="M840,0H716c0,234.513,0.007,469.027-0.011,703.54c-0.002,26.974-12.05,44.575-34.327,49.44
		c-6.097,1.332-12.569,1.28-18.87,1.287c-78.282,0.079-156.565,0.195-234.846-0.146c-8.813-0.038-11.26,2.373-11.226,11.164
		c0.314,81.945,0.199,163.892,0.146,245.839c-0.003,4.292-0.565,8.584-0.866,12.877h424c101.62,0,184-82.38,184-184V184
		C1024,82.38,941.62,0,840,0z"/>
</g>
</svg>
